<svg width="16" height="17" viewBox="0 0 16 17" fill="none" xmlns="http://www.w3.org/2000/svg">
<g id="vuesax/twotone/filter">
<g id="filter">
<path id="Vector" d="M3.59993 1.8999H12.3999C13.1333 1.8999 13.7333 2.4999 13.7333 3.23324V4.6999C13.7333 5.23324 13.3999 5.8999 13.0666 6.23324L10.1999 8.76657C9.79993 9.0999 9.53327 9.76657 9.53327 10.2999V13.1666C9.53327 13.5666 9.2666 14.0999 8.93327 14.2999L7.99994 14.8999C7.13327 15.4332 5.93327 14.8332 5.93327 13.7666V10.2332C5.93327 9.76657 5.6666 9.16657 5.39994 8.83324L2.8666 6.16657C2.53327 5.83324 2.2666 5.23324 2.2666 4.83324V3.2999C2.2666 2.4999 2.8666 1.8999 3.59993 1.8999Z" stroke="white" stroke-miterlimit="10" stroke-linecap="round" stroke-linejoin="round"/>
</g>
</g>
</svg>
