<svg width="227" height="228" viewBox="0 0 227 228" fill="none" xmlns="http://www.w3.org/2000/svg">
<path d="M-2.94362 150.026L-5.91148 152.677L-5.91148 229.709L233.741 229.709L233.741 1.0002L232.249 13.6107C230.757 26.2212 227.772 51.4422 220.83 49.9456C213.887 48.4489 202.985 20.2345 196.822 23.9971C190.658 27.7598 189.232 63.4996 185.127 81.1594C181.023 98.8192 174.239 98.399 165.562 85.1994C156.885 71.9997 146.315 46.0205 138.513 38.7264C130.712 31.4323 125.678 42.8233 120.56 53.6441C115.442 64.4649 110.24 74.7154 103.722 76.0857C97.2035 77.4561 89.3697 69.9462 84.5656 82.8856C79.7616 95.825 77.9873 129.214 73.164 142.023C68.3407 154.833 60.4684 147.063 53.9485 148.421C47.4285 149.779 42.2609 160.265 35.4775 159.845C28.6941 159.425 20.2949 148.099 13.1274 145.086C5.95994 142.074 0.0242315 147.375 -2.94362 150.026Z" fill="url(#paint0_linear_990_3371)" stroke="#F17300"/>
<defs>
<linearGradient id="paint0_linear_990_3371" x1="97" y1="-309.5" x2="97" y2="180" gradientUnits="userSpaceOnUse">
<stop stop-color="#F17300"/>
<stop offset="1" stop-color="#F17300" stop-opacity="0"/>
</linearGradient>
</defs>
</svg>
