<svg width="16" height="17" viewBox="0 0 16 17" fill="none" xmlns="http://www.w3.org/2000/svg">
<g id="vuesax/twotone/printer">
<g id="printer">
<path id="Vector" opacity="0.4" d="M4.8335 5.16683H11.1668V3.8335C11.1668 2.50016 10.6668 1.8335 9.16683 1.8335H6.8335C5.3335 1.8335 4.8335 2.50016 4.8335 3.8335V5.16683Z" stroke="white" stroke-miterlimit="10" stroke-linecap="round" stroke-linejoin="round"/>
<path id="Vector_2" d="M10.6668 10.5V13.1667C10.6668 14.5 10.0002 15.1667 8.66683 15.1667H7.3335C6.00016 15.1667 5.3335 14.5 5.3335 13.1667V10.5H10.6668Z" stroke="white" stroke-miterlimit="10" stroke-linecap="round" stroke-linejoin="round"/>
<path id="Vector_3" d="M14 7.1665V10.4998C14 11.8332 13.3333 12.4998 12 12.4998H10.6667V10.4998H5.33333V12.4998H4C2.66667 12.4998 2 11.8332 2 10.4998V7.1665C2 5.83317 2.66667 5.1665 4 5.1665H12C13.3333 5.1665 14 5.83317 14 7.1665Z" stroke="white" stroke-miterlimit="10" stroke-linecap="round" stroke-linejoin="round"/>
<path id="Vector_4" d="M11.3332 10.5H10.5265H4.6665" stroke="white" stroke-miterlimit="10" stroke-linecap="round" stroke-linejoin="round"/>
<path id="Vector_5" opacity="0.4" d="M4.6665 7.8335H6.6665" stroke="white" stroke-miterlimit="10" stroke-linecap="round" stroke-linejoin="round"/>
</g>
</g>
</svg>
