<svg width="13" height="13" viewBox="0 0 13 13" fill="none" xmlns="http://www.w3.org/2000/svg">
<g id="vuesax/twotone/shield-search">
<g id="shield-search">
<path id="Vector" d="M10.8952 5.77479V4.05979C10.8952 3.44479 10.4252 2.76479 9.85018 2.54979L7.35518 1.61479C6.94018 1.45979 6.26018 1.45979 5.84518 1.61479L3.35018 2.55479C2.77518 2.76979 2.30518 3.44979 2.30518 4.05979V7.77479C2.30518 8.36479 2.69518 9.13978 3.17018 9.49478L5.32018 11.0998C5.67018 11.3698 6.13518 11.4998 6.60018 11.4998" stroke="#292D32" stroke-linecap="round" stroke-linejoin="round"/>
<path id="Vector_2" opacity="0.4" d="M8.6001 10.5C9.70467 10.5 10.6001 9.60457 10.6001 8.5C10.6001 7.39543 9.70467 6.5 8.6001 6.5C7.49553 6.5 6.6001 7.39543 6.6001 8.5C6.6001 9.60457 7.49553 10.5 8.6001 10.5Z" stroke="#292D32" stroke-linecap="round" stroke-linejoin="round"/>
<path id="Vector_3" opacity="0.4" d="M11.0978 11H11.1023" stroke="#292D32" stroke-linecap="round" stroke-linejoin="round"/>
</g>
</g>
</svg>
