<svg width="12" height="13" viewBox="0 0 12 13" fill="none" xmlns="http://www.w3.org/2000/svg">
<g id="vuesax/twotone/trash">
<g id="trash">
<path id="Vector" d="M10.5 3.49023C8.835 3.32523 7.16 3.24023 5.49 3.24023C4.5 3.24023 3.51 3.29023 2.52 3.39023L1.5 3.49023" stroke="#F02D3A" stroke-linecap="round" stroke-linejoin="round"/>
<path id="Vector_2" opacity="0.34" d="M4.25 2.985L4.36 2.33C4.44 1.855 4.5 1.5 5.345 1.5H6.655C7.5 1.5 7.565 1.875 7.64 2.335L7.75 2.985" stroke="#F02D3A" stroke-linecap="round" stroke-linejoin="round"/>
<path id="Vector_3" d="M9.4252 5.06982L9.1002 10.1048C9.0452 10.8898 9.0002 11.4998 7.6052 11.4998H4.3952C3.0002 11.4998 2.9552 10.8898 2.9002 10.1048L2.5752 5.06982" stroke="#F02D3A" stroke-linecap="round" stroke-linejoin="round"/>
<path id="Vector_4" opacity="0.34" d="M5.16504 8.75H6.83004" stroke="#F02D3A" stroke-linecap="round" stroke-linejoin="round"/>
<path id="Vector_5" opacity="0.34" d="M4.75 6.75H7.25" stroke="#F02D3A" stroke-linecap="round" stroke-linejoin="round"/>
</g>
</g>
</svg>
